<svg width="1000" height="800" viewBox="0 0 1000 800" xmlns="http://www.w3.org/2000/svg">
    <rect x="0" y="0" width="1000" height="800" fill="#ffffff"/>
    <g stroke="#000000" stroke-width="2" fill="none" font-family="sans-serif" font-size="16">
        
    <!-- Navbar -->
    <rect x="0" y="0" width="1000" height="60" rx="0" ry="0" fill="#ffffff"/>
    <text x="30" y="35" font-size="20" font-weight="bold" text-anchor="start" fill="#000000" stroke="none">Meu Bolso</text>
    
    <!-- Header -->
    <text x="30" y="100" font-size="24" font-weight="bold" text-anchor="start" fill="#000000" stroke="none">Minhas Assinaturas</text>
    <rect x="800" y="80" width="170" height="40" rx="5" ry="5" fill="#ffffff"/>
    <text x="885" y="105" font-size="14" font-weight="bold" text-anchor="middle" fill="#000000" stroke="none">+ Nova Assinatura</text>
    
    <!-- Filters -->
    <rect x="30" y="140" width="940" height="60" rx="5" ry="5" fill="#ffffff"/>
    <text x="50" y="175" font-size="14" font-weight="normal" text-anchor="start" fill="#999" stroke="none">Buscar...</text>
    <rect x="400" y="150" width="150" height="40" rx="5" ry="5" fill="#ffffff"/>
    <text x="420" y="175" font-size="14" font-weight="normal" text-anchor="start" fill="#000000" stroke="none">Status: Todos</text>
    <rect x="570" y="150" width="150" height="40" rx="5" ry="5" fill="#ffffff"/>
    <text x="590" y="175" font-size="14" font-weight="normal" text-anchor="start" fill="#000000" stroke="none">Categoria: Todas</text>
    
    <!-- List -->
    <rect x="30" y="220" width="940" height="80" rx="8" ry="8" fill="#ffffff"/>
    <circle cx="70" cy="260" r="20" fill="#ffffff"/>
    <text x="110" y="250" font-size="16" font-weight="bold" text-anchor="start" fill="#000000" stroke="none">Netflix</text>
    <text x="110" y="275" font-size="12" font-weight="normal" text-anchor="start" fill="#666" stroke="none">Entretenimento</text>
    <text x="400" y="265" font-size="16" font-weight="bold" text-anchor="start" fill="#000000" stroke="none">R$ 55,90</text>
    <text x="600" y="265" font-size="14" font-weight="normal" text-anchor="start" fill="#000000" stroke="none">Mensal</text>
    <text x="800" y="265" font-size="14" font-weight="normal" text-anchor="start" fill="#000000" stroke="none">Próx: 15/11</text>
    
    <rect x="30" y="310" width="940" height="80" rx="8" ry="8" fill="#ffffff"/>
    <circle cx="70" cy="350" r="20" fill="#ffffff"/>
    <text x="110" y="340" font-size="16" font-weight="bold" text-anchor="start" fill="#000000" stroke="none">Spotify</text>
    <text x="110" y="365" font-size="12" font-weight="normal" text-anchor="start" fill="#666" stroke="none">Música</text>
    <text x="400" y="355" font-size="16" font-weight="bold" text-anchor="start" fill="#000000" stroke="none">R$ 21,90</text>
    <text x="600" y="355" font-size="14" font-weight="normal" text-anchor="start" fill="#000000" stroke="none">Mensal</text>
    <text x="800" y="355" font-size="14" font-weight="normal" text-anchor="start" fill="#000000" stroke="none">Próx: 20/11</text>
    
    <rect x="30" y="400" width="940" height="80" rx="8" ry="8" fill="#ffffff"/>
    <circle cx="70" cy="440" r="20" fill="#ffffff"/>
    <text x="110" y="430" font-size="16" font-weight="bold" text-anchor="start" fill="#000000" stroke="none">Amazon Prime</text>
    <text x="110" y="455" font-size="12" font-weight="normal" text-anchor="start" fill="#666" stroke="none">Compras</text>
    <text x="400" y="445" font-size="16" font-weight="bold" text-anchor="start" fill="#000000" stroke="none">R$ 14,90</text>
    <text x="600" y="445" font-size="14" font-weight="normal" text-anchor="start" fill="#000000" stroke="none">Mensal</text>
    <text x="800" y="445" font-size="14" font-weight="normal" text-anchor="start" fill="#000000" stroke="none">Próx: 10/11</text>

    </g>
</svg>